<svg width="210" height="210" viewBox="0 0 210 210" fill="none" xmlns="http://www.w3.org/2000/svg">
<circle cx="105" cy="105" r="105" fill="white"/>
<circle cx="105" cy="105" r="95" fill="#FF9301"/>
<path d="M64.88 145.8C54.64 145.8 46.8 142.76 41.36 136.68V127.08H52.88V132.84C55.52 135.56 59.24 136.92 64.04 136.92C68.2 136.92 71.24 135.88 73.16 133.8C75.08 131.64 76.04 128.4 76.04 124.08V79.56C76.04 78.04 75.68 76.96 74.96 76.32C74.24 75.6 73.12 75.24 71.6 75.24H68V66.36H96.56V75.24H93.08C91.56 75.24 90.44 75.6 89.72 76.32C89 76.96 88.64 78.04 88.64 79.56V122.28C88.64 129.72 86.6 135.52 82.52 139.68C78.44 143.76 72.56 145.8 64.88 145.8ZM136.891 145.8C128.651 145.8 121.651 144.12 115.891 140.76C110.131 137.32 105.771 132.6 102.811 126.6C99.9313 120.52 98.4912 113.52 98.4912 105.6C98.4912 97.6 99.8513 90.52 102.571 84.36C105.291 78.2 109.451 73.36 115.051 69.84C120.731 66.32 127.771 64.56 136.171 64.56C141.931 64.56 146.891 65.12 151.051 66.24C155.291 67.28 159.011 68.96 162.211 71.28V83.52H149.491V76.08C146.051 74.32 141.611 73.44 136.171 73.44C128.171 73.44 121.971 76.28 117.571 81.96C113.171 87.64 110.971 95.52 110.971 105.6C110.971 115.44 113.291 123.12 117.931 128.64C122.571 134.16 129.051 136.92 137.371 136.92C142.971 136.92 147.891 136.08 152.131 134.4V111.96H135.451V103.08H164.731V138.24C160.811 140.88 156.611 142.8 152.131 144C147.651 145.2 142.571 145.8 136.891 145.8Z" fill="white"/>
</svg>
