<svg width="1000" height="1000" viewBox="0 0 100 100" fill="none" xmlns="http://www.w3.org/2000/svg">
<path d="M11 66.5H89" stroke="#45413C" stroke-linecap="round" stroke-linejoin="round"/>
<path d="M8.5 66.5H11" stroke="#45413C" stroke-linecap="round" stroke-linejoin="round"/>
<path d="M89 66.5H91.5" stroke="#45413C" stroke-linecap="round" stroke-linejoin="round"/>
<path d="M82.67 29.5H65.17V63.5H82.67V29.5Z" fill="#BDBEC0" stroke="#45413C" stroke-linecap="round" stroke-linejoin="round"/>
<path d="M82.67 27.5H65.17V29.5H82.67V27.5Z" fill="#C0DCEB" stroke="#45413C" stroke-linecap="round" stroke-linejoin="round"/>
<path d="M63.17 66.5H65.17V27.5C65.17 27.2348 65.0646 26.9804 64.8771 26.7929C64.6896 26.6054 64.4352 26.5 64.17 26.5C63.9048 26.5 63.6504 26.6054 63.4629 26.7929C63.2754 26.9804 63.17 27.2348 63.17 27.5V66.5Z" fill="#C0DCEB" stroke="#45413C" stroke-linecap="round" stroke-linejoin="round"/>
<path d="M82.67 66.5H84.67V27.5C84.67 27.2348 84.5646 26.9804 84.3771 26.7929C84.1896 26.6054 83.9352 26.5 83.67 26.5C83.4048 26.5 83.1504 26.6054 82.9629 26.7929C82.7754 26.9804 82.67 27.2348 82.67 27.5V66.5Z" fill="#C0DCEB" stroke="#45413C" stroke-linecap="round" stroke-linejoin="round"/>
<path d="M61.17 29.5H43.67V63.5H61.17V29.5Z" fill="#BDBEC0" stroke="#45413C" stroke-linecap="round" stroke-linejoin="round"/>
<path d="M46.67 31.5H58.17C58.4352 31.5 58.6896 31.6054 58.8771 31.7929C59.0646 31.9804 59.17 32.2348 59.17 32.5V34.5H45.67V32.5C45.67 32.2348 45.7754 31.9804 45.9629 31.7929C46.1504 31.6054 46.4048 31.5 46.67 31.5Z" fill="#8CA4B8" stroke="#45413C" stroke-linecap="round" stroke-linejoin="round"/>
<path d="M53.17 31.5L50.17 34.5H59.17V32.5C59.17 32.2348 59.0646 31.9804 58.8771 31.7929C58.6896 31.6054 58.4352 31.5 58.17 31.5H53.17Z" fill="#E8F4FA" stroke="#45413C" stroke-linecap="round" stroke-linejoin="round"/>
<path d="M46.67 47.5H58.17C58.4352 47.5 58.6896 47.6054 58.8771 47.7929C59.0646 47.9804 59.17 48.2348 59.17 48.5V50.5H45.67V48.5C45.67 48.2348 45.7754 47.9804 45.9629 47.7929C46.1504 47.6054 46.4048 47.5 46.67 47.5Z" fill="#8CA4B8" stroke="#45413C" stroke-linecap="round" stroke-linejoin="round"/>
<path d="M53.17 47.5L50.17 50.5H59.17V48.5C59.17 48.2348 59.0646 47.9804 58.8771 47.7929C58.6896 47.6054 58.4352 47.5 58.17 47.5H53.17Z" fill="#E8F4FA" stroke="#45413C" stroke-linecap="round" stroke-linejoin="round"/>
<path d="M45.67 34.5H59.17V36.5C59.17 36.7652 59.0646 37.0196 58.8771 37.2071C58.6896 37.3946 58.4352 37.5 58.17 37.5H46.67C46.4048 37.5 46.1504 37.3946 45.9629 37.2071C45.7754 37.0196 45.67 36.7652 45.67 36.5V34.5Z" fill="#8CA4B8" stroke="#45413C" stroke-linecap="round" stroke-linejoin="round"/>
<path d="M53.17 34.5L50.17 37.5H58.17C58.4352 37.5 58.6896 37.3946 58.8771 37.2071C59.0646 37.0196 59.17 36.7652 59.17 36.5V34.5H53.17Z" fill="#E8F4FA" stroke="#45413C" stroke-linecap="round" stroke-linejoin="round"/>
<path d="M68.17 31.5H79.67C79.9352 31.5 80.1896 31.6054 80.3771 31.7929C80.5646 31.9804 80.67 32.2348 80.67 32.5V34.5H67.17V32.5C67.17 32.2348 67.2754 31.9804 67.4629 31.7929C67.6504 31.6054 67.9048 31.5 68.17 31.5Z" fill="#8CA4B8" stroke="#45413C" stroke-linecap="round" stroke-linejoin="round"/>
<path d="M74.67 31.5L71.67 34.5H80.67V32.5C80.67 32.2348 80.5646 31.9804 80.3771 31.7929C80.1896 31.6054 79.9352 31.5 79.67 31.5H74.67Z" fill="#E8F4FA" stroke="#45413C" stroke-linecap="round" stroke-linejoin="round"/>
<path d="M67.17 34.5H80.67V36.5C80.67 36.7652 80.5646 37.0196 80.3771 37.2071C80.1896 37.3946 79.9352 37.5 79.67 37.5H68.17C67.9048 37.5 67.6504 37.3946 67.4629 37.2071C67.2754 37.0196 67.17 36.7652 67.17 36.5V34.5Z" fill="#8CA4B8" stroke="#45413C" stroke-linecap="round" stroke-linejoin="round"/>
<path d="M74.67 34.5L71.67 37.5H79.67C79.9352 37.5 80.1896 37.3946 80.3771 37.2071C80.5646 37.0196 80.67 36.7652 80.67 36.5V34.5H74.67Z" fill="#E8F4FA" stroke="#45413C" stroke-linecap="round" stroke-linejoin="round"/>
<path d="M68.17 39.5H79.67C79.9352 39.5 80.1896 39.6054 80.3771 39.7929C80.5646 39.9804 80.67 40.2348 80.67 40.5V42.5H67.17V40.5C67.17 40.2348 67.2754 39.9804 67.4629 39.7929C67.6504 39.6054 67.9048 39.5 68.17 39.5Z" fill="#8CA4B8" stroke="#45413C" stroke-linecap="round" stroke-linejoin="round"/>
<path d="M74.67 39.5L71.67 42.5H80.67V40.5C80.67 40.2348 80.5646 39.9804 80.3771 39.7929C80.1896 39.6054 79.9352 39.5 79.67 39.5H74.67Z" fill="#E8F4FA" stroke="#45413C" stroke-linecap="round" stroke-linejoin="round"/>
<path d="M67.17 42.5H80.67V44.5C80.67 44.7652 80.5646 45.0196 80.3771 45.2071C80.1896 45.3946 79.9352 45.5 79.67 45.5H68.17C67.9048 45.5 67.6504 45.3946 67.4629 45.2071C67.2754 45.0196 67.17 44.7652 67.17 44.5V42.5Z" fill="#8CA4B8" stroke="#45413C" stroke-linecap="round" stroke-linejoin="round"/>
<path d="M74.67 42.5L71.67 45.5H79.67C79.9352 45.5 80.1896 45.3946 80.3771 45.2071C80.5646 45.0196 80.67 44.7652 80.67 44.5V42.5H74.67Z" fill="#E8F4FA" stroke="#45413C" stroke-linecap="round" stroke-linejoin="round"/>
<path d="M46.67 55.5H58.17C58.4352 55.5 58.6896 55.6054 58.8771 55.7929C59.0646 55.9804 59.17 56.2348 59.17 56.5V58.5H45.67V56.5C45.67 56.2348 45.7754 55.9804 45.9629 55.7929C46.1504 55.6054 46.4048 55.5 46.67 55.5Z" fill="#8CA4B8" stroke="#45413C" stroke-linecap="round" stroke-linejoin="round"/>
<path d="M53.17 55.5L50.17 58.5H59.17V56.5C59.17 56.2348 59.0646 55.9804 58.8771 55.7929C58.6896 55.6054 58.4352 55.5 58.17 55.5H53.17Z" fill="#E8F4FA" stroke="#45413C" stroke-linecap="round" stroke-linejoin="round"/>
<path d="M45.67 58.5H59.17V60.5C59.17 60.7652 59.0646 61.0196 58.8771 61.2071C58.6896 61.3946 58.4352 61.5 58.17 61.5H46.67C46.4048 61.5 46.1504 61.3946 45.9629 61.2071C45.7754 61.0196 45.67 60.7652 45.67 60.5V58.5Z" fill="#8CA4B8" stroke="#45413C" stroke-linecap="round" stroke-linejoin="round"/>
<path d="M53.17 58.5L50.17 61.5H58.17C58.4352 61.5 58.6896 61.3946 58.8771 61.2071C59.0646 61.0196 59.17 60.7652 59.17 60.5V58.5H53.17Z" fill="#E8F4FA" stroke="#45413C" stroke-linecap="round" stroke-linejoin="round"/>
<path d="M46.67 39.5H58.17C58.4352 39.5 58.6896 39.6054 58.8771 39.7929C59.0646 39.9804 59.17 40.2348 59.17 40.5V42.5H45.67V40.5C45.67 40.2348 45.7754 39.9804 45.9629 39.7929C46.1504 39.6054 46.4048 39.5 46.67 39.5Z" fill="#00DBA8" stroke="#45413C" stroke-linecap="round" stroke-linejoin="round"/>
<path d="M53.17 39.5L50.17 42.5H59.17V40.5C59.17 40.2348 59.0646 39.9804 58.8771 39.7929C58.6896 39.6054 58.4352 39.5 58.17 39.5H53.17Z" fill="#E8F4FA" stroke="#45413C" stroke-linecap="round" stroke-linejoin="round"/>
<path d="M45.67 42.5H59.17V44.5C59.17 44.7652 59.0646 45.0196 58.8771 45.2071C58.6896 45.3946 58.4352 45.5 58.17 45.5H46.67C46.4048 45.5 46.1504 45.3946 45.9629 45.2071C45.7754 45.0196 45.67 44.7652 45.67 44.5V42.5Z" fill="#00DBA8" stroke="#45413C" stroke-linecap="round" stroke-linejoin="round"/>
<path d="M53.17 42.5L50.17 45.5H58.17C58.4352 45.5 58.6896 45.3946 58.8771 45.2071C59.0646 45.0196 59.17 44.7652 59.17 44.5V42.5H53.17Z" fill="#E8F4FA" stroke="#45413C" stroke-linecap="round" stroke-linejoin="round"/>
<path d="M68.17 47.5H79.67C79.9352 47.5 80.1896 47.6054 80.3771 47.7929C80.5646 47.9804 80.67 48.2348 80.67 48.5V50.5H67.17V48.5C67.17 48.2348 67.2754 47.9804 67.4629 47.7929C67.6504 47.6054 67.9048 47.5 68.17 47.5Z" fill="#00DBA8" stroke="#45413C" stroke-linecap="round" stroke-linejoin="round"/>
<path d="M74.67 47.5L71.67 50.5H80.67V48.5C80.67 48.2348 80.5646 47.9804 80.3771 47.7929C80.1896 47.6054 79.9352 47.5 79.67 47.5H74.67Z" fill="#E8F4FA" stroke="#45413C" stroke-linecap="round" stroke-linejoin="round"/>
<path d="M67.17 50.5H80.67V52.5C80.67 52.7652 80.5646 53.0196 80.3771 53.2071C80.1896 53.3946 79.9352 53.5 79.67 53.5H68.17C67.9048 53.5 67.6504 53.3946 67.4629 53.2071C67.2754 53.0196 67.17 52.7652 67.17 52.5V50.5Z" fill="#00DBA8" stroke="#45413C" stroke-linecap="round" stroke-linejoin="round"/>
<path d="M74.67 50.5L71.67 53.5H79.67C79.9352 53.5 80.1896 53.3946 80.3771 53.2071C80.5646 53.0196 80.67 52.7652 80.67 52.5V50.5H74.67Z" fill="#E8F4FA" stroke="#45413C" stroke-linecap="round" stroke-linejoin="round"/>
<path d="M68.17 55.5H79.67C79.9352 55.5 80.1896 55.6054 80.3771 55.7929C80.5646 55.9804 80.67 56.2348 80.67 56.5V58.5H67.17V56.5C67.17 56.2348 67.2754 55.9804 67.4629 55.7929C67.6504 55.6054 67.9048 55.5 68.17 55.5Z" fill="#00DBA8" stroke="#45413C" stroke-linecap="round" stroke-linejoin="round"/>
<path d="M74.67 55.5L71.67 58.5H80.67V56.5C80.67 56.2348 80.5646 55.9804 80.3771 55.7929C80.1896 55.6054 79.9352 55.5 79.67 55.5H74.67Z" fill="#E8F4FA" stroke="#45413C" stroke-linecap="round" stroke-linejoin="round"/>
<path d="M67.17 58.5H80.67V60.5C80.67 60.7652 80.5646 61.0196 80.3771 61.2071C80.1896 61.3946 79.9352 61.5 79.67 61.5H68.17C67.9048 61.5 67.6504 61.3946 67.4629 61.2071C67.2754 61.0196 67.17 60.7652 67.17 60.5V58.5Z" fill="#00DBA8" stroke="#45413C" stroke-linecap="round" stroke-linejoin="round"/>
<path d="M74.67 58.5L71.67 61.5H79.67C79.9352 61.5 80.1896 61.3946 80.3771 61.2071C80.5646 61.0196 80.67 60.7652 80.67 60.5V58.5H74.67Z" fill="#E8F4FA" stroke="#45413C" stroke-linecap="round" stroke-linejoin="round"/>
<path d="M45.67 50.5H59.17V52.5C59.17 52.7652 59.0646 53.0196 58.8771 53.2071C58.6896 53.3946 58.4352 53.5 58.17 53.5H46.67C46.4048 53.5 46.1504 53.3946 45.9629 53.2071C45.7754 53.0196 45.67 52.7652 45.67 52.5V50.5Z" fill="#00DBA8" stroke="#45413C" stroke-linecap="round" stroke-linejoin="round"/>
<path d="M53.17 50.5L50.17 53.5H58.17C58.4352 53.5 58.6896 53.3946 58.8771 53.2071C59.0646 53.0196 59.17 52.7652 59.17 52.5V50.5H53.17Z" fill="#E8F4FA" stroke="#45413C" stroke-linecap="round" stroke-linejoin="round"/>
<path d="M61.17 27.5H43.67V29.5H61.17V27.5Z" fill="#C0DCEB" stroke="#45413C" stroke-linecap="round" stroke-linejoin="round"/>
<path d="M41.67 66.5H43.67V27.5C43.67 27.2348 43.5646 26.9804 43.3771 26.7929C43.1896 26.6054 42.9352 26.5 42.67 26.5C42.4048 26.5 42.1504 26.6054 41.9629 26.7929C41.7754 26.9804 41.67 27.2348 41.67 27.5V66.5Z" fill="#C0DCEB" stroke="#45413C" stroke-linecap="round" stroke-linejoin="round"/>
<path d="M61.17 66.5H63.17V27.5C63.17 27.2348 63.0646 26.9804 62.8771 26.7929C62.6896 26.6054 62.4352 26.5 62.17 26.5C61.9048 26.5 61.6504 26.6054 61.4629 26.7929C61.2754 26.9804 61.17 27.2348 61.17 27.5V66.5Z" fill="#C0DCEB" stroke="#45413C" stroke-linecap="round" stroke-linejoin="round"/>
<path d="M46.08 54.38C46.4614 54.372 46.8406 54.4404 47.1952 54.5812C47.5498 54.7219 47.8727 54.9322 48.1448 55.1997C48.4169 55.4671 48.6327 55.7863 48.7796 56.1384C48.9265 56.4905 49.0014 56.8685 49 57.25V78C49 79.1192 49.4446 80.1926 50.236 80.984C51.0274 81.7754 52.1008 82.22 53.22 82.22H57" stroke="#45413C" stroke-linecap="round" stroke-linejoin="round"/>
<path d="M58.15 83.12H61V80.83H58.15C57.9973 80.83 57.8461 80.8604 57.7052 80.9194C57.5644 80.9785 57.4367 81.065 57.3297 81.1739C57.2226 81.2828 57.1383 81.4119 57.0817 81.5538C57.0251 81.6956 56.9973 81.8473 57 82V82C57.0078 82.2998 57.1324 82.5846 57.3472 82.7938C57.5621 83.0031 57.8501 83.1201 58.15 83.12V83.12Z" fill="#E0E0E0" stroke="#45413C" stroke-linecap="round" stroke-linejoin="round"/>
<path d="M58.15 63.57V70.1C58.15 70.4515 58.2194 70.7995 58.3542 71.1241C58.489 71.4487 58.6866 71.7435 58.9356 71.9915C59.1845 72.2396 59.4801 72.436 59.8052 72.5696C60.1303 72.7032 60.4785 72.7713 60.83 72.77H63.33C63.9349 72.77 64.5339 72.8893 65.0927 73.1211C65.6514 73.3529 66.1589 73.6926 66.5862 74.1208C67.0135 74.5491 67.3521 75.0573 67.5827 75.6166C67.8133 76.1758 67.9313 76.7751 67.93 77.38V77.38C67.93 78.6 67.4454 79.77 66.5827 80.6327C65.72 81.4954 64.55 81.98 63.33 81.98H61" stroke="#45413C" stroke-linecap="round" stroke-linejoin="round"/>
<path d="M54.7 63.57V70C54.7026 70.7303 54.9946 71.4297 55.5119 71.9452C56.0292 72.4606 56.7297 72.75 57.46 72.75H63.33" stroke="#45413C" stroke-linecap="round" stroke-linejoin="round"/>
<path d="M29.4 22.18C28.4944 22.1787 27.5973 22.3559 26.7602 22.7016C25.9232 23.0473 25.1624 23.5546 24.5216 24.1945C23.8807 24.8344 23.3723 25.5944 23.0254 26.431C22.6786 27.2676 22.5 28.1643 22.5 29.07V30C22.1778 30.0605 21.8867 30.2313 21.6768 30.4832C21.4669 30.735 21.3514 31.0522 21.35 31.38C21.3537 31.7333 21.489 32.0724 21.7294 32.3313C21.9697 32.5902 22.298 32.7502 22.65 32.78C23.0031 34.4458 23.9596 35.9223 25.3357 36.9253C26.7118 37.9284 28.4101 38.3871 30.1041 38.2134C31.798 38.0397 33.3679 37.2457 34.5117 35.9842C35.6555 34.7227 36.2925 33.0828 36.3 31.38V29.07C36.3 28.1643 36.1215 27.2676 35.7746 26.431C35.4277 25.5944 34.9193 24.8344 34.2784 24.1945C33.6376 23.5546 32.8769 23.0473 32.0398 22.7016C31.2027 22.3559 30.3057 22.1787 29.4 22.18V22.18Z" fill="#FFCEBF" stroke="#45413C" stroke-linecap="round" stroke-linejoin="round"/>
<path d="M17.9 51.5C17.8558 50.0375 18.1056 48.581 18.6347 47.2168C19.1638 45.8527 19.9615 44.6087 20.9803 43.5585C21.9992 42.5084 23.2185 41.6735 24.566 41.1033C25.9136 40.5332 27.3618 40.2394 28.825 40.2394C30.2882 40.2394 31.7365 40.5332 33.084 41.1033C34.4315 41.6735 35.6508 42.5084 36.6697 43.5585C37.6885 44.6087 38.4862 45.8527 39.0153 47.2168C39.5444 48.581 39.7943 50.0375 39.75 51.5V53.23H36.88V61.85H21.88V53.23H17.88L17.9 51.5Z" fill="white" stroke="#45413C" stroke-linecap="round" stroke-linejoin="round"/>
<path d="M28.54 30.8C29.015 30.8 29.4 30.415 29.4 29.94C29.4 29.465 29.015 29.08 28.54 29.08C28.065 29.08 27.68 29.465 27.68 29.94C27.68 30.415 28.065 30.8 28.54 30.8Z" fill="#45413C"/>
<path d="M33.14 30.8C33.615 30.8 34 30.415 34 29.94C34 29.465 33.615 29.08 33.14 29.08C32.665 29.08 32.28 29.465 32.28 29.94C32.28 30.415 32.665 30.8 33.14 30.8Z" fill="#45413C"/>
<path d="M26.24 33.1C26.715 33.1 27.1 32.715 27.1 32.24C27.1 31.765 26.715 31.38 26.24 31.38C25.765 31.38 25.38 31.765 25.38 32.24C25.38 32.715 25.765 33.1 26.24 33.1Z" fill="#FFB59E"/>
<path d="M28.83 34.3C29.3404 34.6418 29.9408 34.8243 30.555 34.8243C31.1692 34.8243 31.7696 34.6418 32.28 34.3" stroke="#45413C" stroke-linecap="round" stroke-linejoin="round"/>
<path d="M36.88 27.35C36.88 25.3609 36.0898 23.4532 34.6833 22.0467C33.2768 20.6402 31.3691 19.85 29.38 19.85C27.3909 19.85 25.4832 20.6402 24.0767 22.0467C22.6702 23.4532 21.88 25.3609 21.88 27.35V29.65C22.7677 29.4224 23.5907 28.9926 24.2846 28.3941C24.9785 27.7956 25.5246 27.0446 25.88 26.2C29.18 28.37 33.43 27.93 36.88 27.35Z" fill="#A86C4D"/>
<path d="M29.4 22.75C30.8913 22.7506 32.3484 23.1963 33.5848 24.0301C34.8212 24.8638 35.7805 26.0477 36.34 27.43L36.88 27.35C36.88 25.3609 36.0898 23.4532 34.6833 22.0467C33.2768 20.6402 31.3691 19.85 29.38 19.85C27.3909 19.85 25.4832 20.6402 24.0767 22.0467C22.6702 23.4532 21.88 25.3609 21.88 27.35V29.65C22.0245 27.7606 22.8817 25.9967 24.2779 24.7155C25.6742 23.4344 27.5051 22.7318 29.4 22.75V22.75Z" fill="#DE926A"/>
<path d="M36.88 27.35C36.88 25.3609 36.0898 23.4532 34.6833 22.0467C33.2768 20.6402 31.3691 19.85 29.38 19.85C27.3909 19.85 25.4832 20.6402 24.0767 22.0467C22.6702 23.4532 21.88 25.3609 21.88 27.35V29.65C22.7677 29.4224 23.5907 28.9926 24.2846 28.3941C24.9785 27.7956 25.5246 27.0446 25.88 26.2C29.18 28.37 33.43 27.93 36.88 27.35Z" stroke="#45413C" stroke-linecap="round" stroke-linejoin="round"/>
<path d="M24.8 25.05C25.11 25.5174 25.5198 25.9102 26 26.2" stroke="#45413C" stroke-linecap="round" stroke-linejoin="round"/>
<path d="M17.9 65C17.9 65.5304 18.1107 66.0391 18.4858 66.4142C18.8609 66.7893 19.3696 67 19.9 67C20.4304 67 20.9391 66.7893 21.3142 66.4142C21.6893 66.0391 21.9 65.5304 21.9 65V53.23H17.9V65Z" fill="#FFCEBF" stroke="#45413C" stroke-linecap="round" stroke-linejoin="round"/>
<path d="M21.93 53.23V49.77" stroke="#45413C" stroke-linecap="round" stroke-linejoin="round"/>
<path d="M36.88 53.23V49.77" stroke="#45413C" stroke-linecap="round" stroke-linejoin="round"/>
<path d="M26.56 40.81L29.4 44.6L32.14 41.09C31.0697 40.7487 29.9534 40.5733 28.83 40.57C28.0672 40.5735 27.3067 40.6539 26.56 40.81V40.81Z" fill="#FFCEBF" stroke="#45413C" stroke-linecap="round" stroke-linejoin="round"/>
<path d="M29.4 44.6L31.52 44.95C31.6692 44.966 31.8202 44.9482 31.9616 44.898C32.103 44.8477 32.2314 44.7662 32.337 44.6596C32.4427 44.553 32.523 44.424 32.572 44.2821C32.6209 44.1402 32.6374 43.9891 32.62 43.84L32.14 41.09L29.4 44.6Z" fill="#FF9301" stroke="#45413C" stroke-linecap="round" stroke-linejoin="round"/>
<path d="M26.56 40.81L26.13 43.88C26.1107 44.0308 26.126 44.184 26.1748 44.328C26.2236 44.472 26.3046 44.6029 26.4116 44.7109C26.5187 44.8189 26.6489 44.9011 26.7924 44.9512C26.936 45.0012 27.089 45.018 27.24 45L29.4 44.64L26.56 40.81Z" fill="#FF9301" stroke="#45413C" stroke-linecap="round" stroke-linejoin="round"/>
<path d="M29.4 44.6V61.85" stroke="#45413C" stroke-linecap="round" stroke-linejoin="round"/>
<path d="M45.08 48.63H33.85C33.2977 48.63 32.85 49.0777 32.85 49.63V56.26C32.85 56.8123 33.2977 57.26 33.85 57.26H45.08C45.6323 57.26 46.08 56.8123 46.08 56.26V49.63C46.08 49.0777 45.6323 48.63 45.08 48.63Z" fill="white"/>
<path d="M44.93 51.5H34C33.3649 51.5 32.85 52.0149 32.85 52.65V56.1C32.85 56.7351 33.3649 57.25 34 57.25H44.93C45.5651 57.25 46.08 56.7351 46.08 56.1V52.65C46.08 52.0149 45.5651 51.5 44.93 51.5Z" fill="#F0F0F0"/>
<path d="M45.08 48.63H33.85C33.2977 48.63 32.85 49.0777 32.85 49.63V56.26C32.85 56.8123 33.2977 57.26 33.85 57.26H45.08C45.6323 57.26 46.08 56.8123 46.08 56.26V49.63C46.08 49.0777 45.6323 48.63 45.08 48.63Z" stroke="#45413C" stroke-linecap="round" stroke-linejoin="round"/>
<path d="M39.47 54.95C40.1051 54.95 40.62 54.4351 40.62 53.8C40.62 53.1649 40.1051 52.65 39.47 52.65C38.8349 52.65 38.32 53.1649 38.32 53.8C38.32 54.4351 38.8349 54.95 39.47 54.95Z" fill="#FFE500" stroke="#45413C" stroke-linecap="round" stroke-linejoin="round"/>
<path d="M39.47 51.5L40.04 50.93" stroke="#45413C" stroke-linecap="round" stroke-linejoin="round"/>
<path d="M37.69 56.68H40.69C40.9048 56.68 41.1108 56.7653 41.2627 56.9172C41.4147 57.0691 41.5 57.2752 41.5 57.49V58.35C41.5 58.6683 41.3736 58.9735 41.1485 59.1985C40.9235 59.4236 40.6183 59.55 40.3 59.55H38.1C37.9424 59.55 37.7864 59.519 37.6408 59.4587C37.4952 59.3984 37.3629 59.31 37.2515 59.1985C37.14 59.0871 37.0516 58.9548 36.9913 58.8092C36.931 58.6636 36.9 58.5076 36.9 58.35V57.49C36.8999 57.2786 36.9825 57.0755 37.1301 56.9242C37.2777 56.7729 37.4787 56.6852 37.69 56.68V56.68Z" fill="#FFCEBF" stroke="#45413C" stroke-linecap="round" stroke-linejoin="round"/>
<path d="M36.3 79.67C36.493 79.6547 36.687 79.6547 36.88 79.67V61.85H21.88V79.67H26.48C26.7123 79.6707 26.9437 79.6976 27.17 79.75L27.57 68.75C27.6037 68.2997 27.8064 67.8787 28.1375 67.5716C28.4685 67.2644 28.9034 67.0937 29.355 67.0937C29.8066 67.0937 30.2415 67.2644 30.5725 67.5716C30.9036 67.8787 31.1063 68.2997 31.14 68.75L31.65 79.67H36.3Z" fill="#FF9301"/>
<path d="M36.88 61.85H21.93V64.73H36.88V61.85Z" fill="#FF9910"/>
<path d="M36.3 79.67C36.493 79.6547 36.687 79.6547 36.88 79.67V61.85H21.88V79.67H26.48C26.7123 79.6707 26.9437 79.6976 27.17 79.75L27.57 68.75C27.6037 68.2997 27.8064 67.8787 28.1375 67.5716C28.4685 67.2644 28.9034 67.0937 29.355 67.0937C29.8066 67.0937 30.2415 67.2644 30.5725 67.5716C30.9036 67.8787 31.1063 68.2997 31.14 68.75L31.65 79.67H36.3Z" stroke="#45413C" stroke-linecap="round" stroke-linejoin="round"/>
<path d="M39.75 83.12C39.75 82.205 39.3865 81.3275 38.7395 80.6805C38.0925 80.0335 37.215 79.67 36.3 79.67H31.7V82C31.7026 82.3033 31.825 82.5932 32.0403 82.8067C32.2557 83.0202 32.5467 83.14 32.85 83.14L39.75 83.12Z" fill="#947746" stroke="#45413C" stroke-linecap="round" stroke-linejoin="round"/>
<path d="M30 83.12C29.9974 82.2058 29.633 81.3298 28.9866 80.6834C28.3402 80.037 27.4642 79.6726 26.55 79.67H21.95V82C21.95 82.1506 21.9798 82.2996 22.0377 82.4386C22.0956 82.5776 22.1805 82.7037 22.2874 82.8097C22.3943 82.9156 22.5212 82.9994 22.6607 83.0561C22.8001 83.1128 22.9495 83.1413 23.1 83.14L30 83.12Z" fill="#947746" stroke="#45413C" stroke-linecap="round" stroke-linejoin="round"/>
<path opacity="0.15" d="M31.13 86C37.4813 86 42.63 85.2254 42.63 84.27C42.63 83.3145 37.4813 82.54 31.13 82.54C24.7787 82.54 19.63 83.3145 19.63 84.27C19.63 85.2254 24.7787 86 31.13 86Z" fill="#020202"/>
</svg>
