<svg width="1000" height="1000" viewBox="0 0 1000 1000" fill="none" xmlns="http://www.w3.org/2000/svg">
<path d="M110 665H890" stroke="#45413C" stroke-width="10" stroke-linecap="round" stroke-linejoin="round"/>
<path d="M85 665H110" stroke="#45413C" stroke-width="10" stroke-linecap="round" stroke-linejoin="round"/>
<path d="M890 665H915" stroke="#45413C" stroke-width="10" stroke-linecap="round" stroke-linejoin="round"/>
<path d="M826.7 295H651.7V635H826.7V295Z" fill="#BDBEC0" stroke="#45413C" stroke-width="10" stroke-linecap="round" stroke-linejoin="round"/>
<path d="M826.7 275H651.7V295H826.7V275Z" fill="#C0DCEB" stroke="#45413C" stroke-width="10" stroke-linecap="round" stroke-linejoin="round"/>
<path d="M631.7 665H651.7V275C651.7 272.348 650.646 269.804 648.771 267.929C646.896 266.054 644.352 265 641.7 265C639.048 265 636.504 266.054 634.629 267.929C632.754 269.804 631.7 272.348 631.7 275V665Z" fill="#C0DCEB" stroke="#45413C" stroke-width="10" stroke-linecap="round" stroke-linejoin="round"/>
<path d="M826.7 665H846.7V275C846.7 272.348 845.646 269.804 843.771 267.929C841.896 266.054 839.352 265 836.7 265C834.048 265 831.504 266.054 829.629 267.929C827.754 269.804 826.7 272.348 826.7 275V665Z" fill="#C0DCEB" stroke="#45413C" stroke-width="10" stroke-linecap="round" stroke-linejoin="round"/>
<path d="M611.7 295H436.7V635H611.7V295Z" fill="#BDBEC0" stroke="#45413C" stroke-width="10" stroke-linecap="round" stroke-linejoin="round"/>
<path d="M466.7 315H581.7C584.352 315 586.896 316.054 588.771 317.929C590.646 319.804 591.7 322.348 591.7 325V345H456.7V325C456.7 322.348 457.754 319.804 459.629 317.929C461.504 316.054 464.048 315 466.7 315Z" fill="#8CA4B8" stroke="#45413C" stroke-width="10" stroke-linecap="round" stroke-linejoin="round"/>
<path d="M531.7 315L501.7 345H591.7V325C591.7 322.348 590.646 319.804 588.771 317.929C586.896 316.054 584.352 315 581.7 315H531.7Z" fill="#E8F4FA" stroke="#45413C" stroke-width="10" stroke-linecap="round" stroke-linejoin="round"/>
<path d="M466.7 475H581.7C584.352 475 586.896 476.054 588.771 477.929C590.646 479.804 591.7 482.348 591.7 485V505H456.7V485C456.7 482.348 457.754 479.804 459.629 477.929C461.504 476.054 464.048 475 466.7 475Z" fill="#8CA4B8" stroke="#45413C" stroke-width="10" stroke-linecap="round" stroke-linejoin="round"/>
<path d="M531.7 475L501.7 505H591.7V485C591.7 482.348 590.646 479.804 588.771 477.929C586.896 476.054 584.352 475 581.7 475H531.7Z" fill="#E8F4FA" stroke="#45413C" stroke-width="10" stroke-linecap="round" stroke-linejoin="round"/>
<path d="M456.7 345H591.7V365C591.7 367.652 590.646 370.196 588.771 372.071C586.896 373.946 584.352 375 581.7 375H466.7C464.048 375 461.504 373.946 459.629 372.071C457.754 370.196 456.7 367.652 456.7 365V345Z" fill="#8CA4B8" stroke="#45413C" stroke-width="10" stroke-linecap="round" stroke-linejoin="round"/>
<path d="M531.7 345L501.7 375H581.7C584.352 375 586.896 373.946 588.771 372.071C590.646 370.196 591.7 367.652 591.7 365V345H531.7Z" fill="#E8F4FA" stroke="#45413C" stroke-width="10" stroke-linecap="round" stroke-linejoin="round"/>
<path d="M681.7 315H796.7C799.352 315 801.896 316.054 803.771 317.929C805.646 319.804 806.7 322.348 806.7 325V345H671.7V325C671.7 322.348 672.754 319.804 674.629 317.929C676.504 316.054 679.048 315 681.7 315Z" fill="#8CA4B8" stroke="#45413C" stroke-width="10" stroke-linecap="round" stroke-linejoin="round"/>
<path d="M746.7 315L716.7 345H806.7V325C806.7 322.348 805.646 319.804 803.771 317.929C801.896 316.054 799.352 315 796.7 315H746.7Z" fill="#E8F4FA" stroke="#45413C" stroke-width="10" stroke-linecap="round" stroke-linejoin="round"/>
<path d="M671.7 345H806.7V365C806.7 367.652 805.646 370.196 803.771 372.071C801.896 373.946 799.352 375 796.7 375H681.7C679.048 375 676.504 373.946 674.629 372.071C672.754 370.196 671.7 367.652 671.7 365V345Z" fill="#8CA4B8" stroke="#45413C" stroke-width="10" stroke-linecap="round" stroke-linejoin="round"/>
<path d="M746.7 345L716.7 375H796.7C799.352 375 801.896 373.946 803.771 372.071C805.646 370.196 806.7 367.652 806.7 365V345H746.7Z" fill="#E8F4FA" stroke="#45413C" stroke-width="10" stroke-linecap="round" stroke-linejoin="round"/>
<path d="M681.7 395H796.7C799.352 395 801.896 396.054 803.771 397.929C805.646 399.804 806.7 402.348 806.7 405V425H671.7V405C671.7 402.348 672.754 399.804 674.629 397.929C676.504 396.054 679.048 395 681.7 395Z" fill="#8CA4B8" stroke="#45413C" stroke-width="10" stroke-linecap="round" stroke-linejoin="round"/>
<path d="M746.7 395L716.7 425H806.7V405C806.7 402.348 805.646 399.804 803.771 397.929C801.896 396.054 799.352 395 796.7 395H746.7Z" fill="#E8F4FA" stroke="#45413C" stroke-width="10" stroke-linecap="round" stroke-linejoin="round"/>
<path d="M671.7 425H806.7V445C806.7 447.652 805.646 450.196 803.771 452.071C801.896 453.946 799.352 455 796.7 455H681.7C679.048 455 676.504 453.946 674.629 452.071C672.754 450.196 671.7 447.652 671.7 445V425Z" fill="#8CA4B8" stroke="#45413C" stroke-width="10" stroke-linecap="round" stroke-linejoin="round"/>
<path d="M746.7 425L716.7 455H796.7C799.352 455 801.896 453.946 803.771 452.071C805.646 450.196 806.7 447.652 806.7 445V425H746.7Z" fill="#E8F4FA" stroke="#45413C" stroke-width="10" stroke-linecap="round" stroke-linejoin="round"/>
<path d="M466.7 555H581.7C584.352 555 586.896 556.054 588.771 557.929C590.646 559.804 591.7 562.348 591.7 565V585H456.7V565C456.7 562.348 457.754 559.804 459.629 557.929C461.504 556.054 464.048 555 466.7 555Z" fill="#8CA4B8" stroke="#45413C" stroke-width="10" stroke-linecap="round" stroke-linejoin="round"/>
<path d="M531.7 555L501.7 585H591.7V565C591.7 562.348 590.646 559.804 588.771 557.929C586.896 556.054 584.352 555 581.7 555H531.7Z" fill="#E8F4FA" stroke="#45413C" stroke-width="10" stroke-linecap="round" stroke-linejoin="round"/>
<path d="M456.7 585H591.7V605C591.7 607.652 590.646 610.196 588.771 612.071C586.896 613.946 584.352 615 581.7 615H466.7C464.048 615 461.504 613.946 459.629 612.071C457.754 610.196 456.7 607.652 456.7 605V585Z" fill="#8CA4B8" stroke="#45413C" stroke-width="10" stroke-linecap="round" stroke-linejoin="round"/>
<path d="M531.7 585L501.7 615H581.7C584.352 615 586.896 613.946 588.771 612.071C590.646 610.196 591.7 607.652 591.7 605V585H531.7Z" fill="#E8F4FA" stroke="#45413C" stroke-width="10" stroke-linecap="round" stroke-linejoin="round"/>
<path d="M466.7 395H581.7C584.352 395 586.896 396.054 588.771 397.929C590.646 399.804 591.7 402.348 591.7 405V425H456.7V405C456.7 402.348 457.754 399.804 459.629 397.929C461.504 396.054 464.048 395 466.7 395Z" fill="#5E9E53" stroke="#45413C" stroke-width="10" stroke-linecap="round" stroke-linejoin="round"/>
<path d="M531.7 395L501.7 425H591.7V405C591.7 402.348 590.646 399.804 588.771 397.929C586.896 396.054 584.352 395 581.7 395H531.7Z" fill="#E8F4FA" stroke="#45413C" stroke-width="10" stroke-linecap="round" stroke-linejoin="round"/>
<path d="M456.7 425H591.7V445C591.7 447.652 590.646 450.196 588.771 452.071C586.896 453.946 584.352 455 581.7 455H466.7C464.048 455 461.504 453.946 459.629 452.071C457.754 450.196 456.7 447.652 456.7 445V425Z" fill="#5E9E53" stroke="#45413C" stroke-width="10" stroke-linecap="round" stroke-linejoin="round"/>
<path d="M531.7 425L501.7 455H581.7C584.352 455 586.896 453.946 588.771 452.071C590.646 450.196 591.7 447.652 591.7 445V425H531.7Z" fill="#E8F4FA" stroke="#45413C" stroke-width="10" stroke-linecap="round" stroke-linejoin="round"/>
<path d="M681.7 475H796.7C799.352 475 801.896 476.054 803.771 477.929C805.646 479.804 806.7 482.348 806.7 485V505H671.7V485C671.7 482.348 672.754 479.804 674.629 477.929C676.504 476.054 679.048 475 681.7 475Z" fill="#5E9E53" stroke="#45413C" stroke-width="10" stroke-linecap="round" stroke-linejoin="round"/>
<path d="M746.7 475L716.7 505H806.7V485C806.7 482.348 805.646 479.804 803.771 477.929C801.896 476.054 799.352 475 796.7 475H746.7Z" fill="#E8F4FA" stroke="#45413C" stroke-width="10" stroke-linecap="round" stroke-linejoin="round"/>
<path d="M671.7 505H806.7V525C806.7 527.652 805.646 530.196 803.771 532.071C801.896 533.946 799.352 535 796.7 535H681.7C679.048 535 676.504 533.946 674.629 532.071C672.754 530.196 671.7 527.652 671.7 525V505Z" fill="#5E9E53" stroke="#45413C" stroke-width="10" stroke-linecap="round" stroke-linejoin="round"/>
<path d="M746.7 505L716.7 535H796.7C799.352 535 801.896 533.946 803.771 532.071C805.646 530.196 806.7 527.652 806.7 525V505H746.7Z" fill="#E8F4FA" stroke="#45413C" stroke-width="10" stroke-linecap="round" stroke-linejoin="round"/>
<path d="M681.7 555H796.7C799.352 555 801.896 556.054 803.771 557.929C805.646 559.804 806.7 562.348 806.7 565V585H671.7V565C671.7 562.348 672.754 559.804 674.629 557.929C676.504 556.054 679.048 555 681.7 555Z" fill="#5E9E53" stroke="#45413C" stroke-width="10" stroke-linecap="round" stroke-linejoin="round"/>
<path d="M746.7 555L716.7 585H806.7V565C806.7 562.348 805.646 559.804 803.771 557.929C801.896 556.054 799.352 555 796.7 555H746.7Z" fill="#E8F4FA" stroke="#45413C" stroke-width="10" stroke-linecap="round" stroke-linejoin="round"/>
<path d="M671.7 585H806.7V605C806.7 607.652 805.646 610.196 803.771 612.071C801.896 613.946 799.352 615 796.7 615H681.7C679.048 615 676.504 613.946 674.629 612.071C672.754 610.196 671.7 607.652 671.7 605V585Z" fill="#5E9E53" stroke="#45413C" stroke-width="10" stroke-linecap="round" stroke-linejoin="round"/>
<path d="M746.7 585L716.7 615H796.7C799.352 615 801.896 613.946 803.771 612.071C805.646 610.196 806.7 607.652 806.7 605V585H746.7Z" fill="#E8F4FA" stroke="#45413C" stroke-width="10" stroke-linecap="round" stroke-linejoin="round"/>
<path d="M456.7 505H591.7V525C591.7 527.652 590.646 530.196 588.771 532.071C586.896 533.946 584.352 535 581.7 535H466.7C464.048 535 461.504 533.946 459.629 532.071C457.754 530.196 456.7 527.652 456.7 525V505Z" fill="#8CA4B8" stroke="#45413C" stroke-width="10" stroke-linecap="round" stroke-linejoin="round"/>
<path d="M531.7 505L501.7 535H581.7C584.352 535 586.896 533.946 588.771 532.071C590.646 530.196 591.7 527.652 591.7 525V505H531.7Z" fill="#E8F4FA" stroke="#45413C" stroke-width="10" stroke-linecap="round" stroke-linejoin="round"/>
<path d="M611.7 275H436.7V295H611.7V275Z" fill="#C0DCEB" stroke="#45413C" stroke-width="10" stroke-linecap="round" stroke-linejoin="round"/>
<path d="M416.7 665H436.7V275C436.7 272.348 435.646 269.804 433.771 267.929C431.896 266.054 429.352 265 426.7 265C424.048 265 421.504 266.054 419.629 267.929C417.754 269.804 416.7 272.348 416.7 275V665Z" fill="#C0DCEB" stroke="#45413C" stroke-width="10" stroke-linecap="round" stroke-linejoin="round"/>
<path d="M611.7 665H631.7V275C631.7 272.348 630.646 269.804 628.771 267.929C626.896 266.054 624.352 265 621.7 265C619.048 265 616.504 266.054 614.629 267.929C612.754 269.804 611.7 272.348 611.7 275V665Z" fill="#C0DCEB" stroke="#45413C" stroke-width="10" stroke-linecap="round" stroke-linejoin="round"/>
<path d="M460.8 543.8C464.614 543.72 468.406 544.404 471.952 545.812C475.498 547.219 478.727 549.322 481.448 551.997C484.169 554.671 486.327 557.863 487.796 561.384C489.265 564.905 490.014 568.685 490 572.5V780C490 791.192 494.446 801.926 502.36 809.84C510.274 817.754 521.008 822.2 532.2 822.2H570" stroke="#45413C" stroke-width="10" stroke-linecap="round" stroke-linejoin="round"/>
<path d="M581.5 831.2H610V808.3H581.5C579.973 808.3 578.461 808.604 577.052 809.194C575.644 809.785 574.367 810.65 573.297 811.739C572.226 812.828 571.383 814.119 570.817 815.538C570.251 816.956 569.973 818.473 570 820C570.078 822.998 571.324 825.846 573.472 827.938C575.621 830.031 578.501 831.201 581.5 831.2Z" fill="#45413C" stroke="#45413C" stroke-width="10" stroke-linecap="round" stroke-linejoin="round"/>
<path d="M581.5 635.7V701C581.5 704.515 582.194 707.995 583.542 711.241C584.89 714.487 586.866 717.435 589.356 719.915C591.845 722.396 594.801 724.36 598.052 725.696C601.303 727.032 604.785 727.713 608.3 727.7H633.3C639.349 727.7 645.339 728.893 650.927 731.211C656.514 733.529 661.589 736.926 665.862 741.208C670.135 745.491 673.521 750.573 675.827 756.166C678.133 761.758 679.313 767.751 679.3 773.8C679.3 786 674.454 797.7 665.827 806.327C657.2 814.954 645.5 819.8 633.3 819.8H610" stroke="#45413C" stroke-width="10" stroke-linecap="round" stroke-linejoin="round"/>
<path d="M547 635.7V700C547.026 707.303 549.946 714.297 555.119 719.452C560.292 724.606 567.297 727.5 574.6 727.5H633.3" stroke="#45413C" stroke-width="10" stroke-linecap="round" stroke-linejoin="round"/>
<path d="M294 221.8C284.944 221.787 275.973 223.559 267.602 227.016C259.232 230.473 251.624 235.546 245.216 241.945C238.807 248.344 233.723 255.944 230.254 264.31C226.786 272.676 225 281.643 225 290.7V300C221.778 300.605 218.867 302.313 216.768 304.832C214.669 307.35 213.514 310.522 213.5 313.8C213.537 317.333 214.89 320.724 217.294 323.313C219.697 325.902 222.98 327.502 226.5 327.8C230.031 344.458 239.596 359.223 253.357 369.253C267.118 379.284 284.101 383.871 301.041 382.134C317.98 380.397 333.679 372.457 345.117 359.842C356.555 347.227 362.925 330.828 363 313.8V290.7C363 281.643 361.215 272.676 357.746 264.31C354.277 255.944 349.193 248.344 342.784 241.945C336.376 235.546 328.769 230.473 320.398 227.016C312.027 223.559 303.057 221.787 294 221.8Z" fill="#FFCEBF" stroke="#45413C" stroke-width="10" stroke-linecap="round" stroke-linejoin="round"/>
<path d="M179 515C178.558 500.375 181.056 485.81 186.347 472.168C191.638 458.527 199.615 446.087 209.803 435.585C219.992 425.084 232.185 416.735 245.66 411.033C259.136 405.332 273.618 402.394 288.25 402.394C302.882 402.394 317.365 405.332 330.84 411.033C344.315 416.735 356.508 425.084 366.697 435.585C376.885 446.087 384.862 458.527 390.153 472.168C395.444 485.81 397.943 500.375 397.5 515V532.3H368.8V618.5H218.8V532.3H178.8L179 515Z" fill="white" stroke="#45413C" stroke-width="10" stroke-linecap="round" stroke-linejoin="round"/>
<path d="M285.4 308C290.15 308 294 304.15 294 299.4C294 294.65 290.15 290.8 285.4 290.8C280.65 290.8 276.8 294.65 276.8 299.4C276.8 304.15 280.65 308 285.4 308Z" fill="#45413C"/>
<path d="M331.4 308C336.15 308 340 304.15 340 299.4C340 294.65 336.15 290.8 331.4 290.8C326.65 290.8 322.8 294.65 322.8 299.4C322.8 304.15 326.65 308 331.4 308Z" fill="#45413C"/>
<path d="M262.4 331C267.15 331 271 327.15 271 322.4C271 317.65 267.15 313.8 262.4 313.8C257.65 313.8 253.8 317.65 253.8 322.4C253.8 327.15 257.65 331 262.4 331Z" fill="#FFB59E"/>
<path d="M288.3 343C293.404 346.418 299.408 348.243 305.55 348.243C311.692 348.243 317.696 346.418 322.8 343" stroke="#45413C" stroke-width="10" stroke-linecap="round" stroke-linejoin="round"/>
<path d="M368.8 273.5C368.8 253.609 360.898 234.532 346.833 220.467C332.768 206.402 313.691 198.5 293.8 198.5C273.909 198.5 254.832 206.402 240.767 220.467C226.702 234.532 218.8 253.609 218.8 273.5V296.5C227.677 294.224 235.907 289.926 242.846 283.941C249.785 277.956 255.246 270.446 258.8 262C291.8 283.7 334.3 279.3 368.8 273.5Z" fill="#45413C"/>
<path d="M294 227.5C308.913 227.506 323.484 231.963 335.848 240.301C348.212 248.638 357.805 260.477 363.4 274.3L368.8 273.5C368.8 253.609 360.898 234.532 346.833 220.467C332.768 206.402 313.691 198.5 293.8 198.5C273.909 198.5 254.832 206.402 240.767 220.467C226.702 234.532 218.8 253.609 218.8 273.5V296.5C220.245 277.606 228.817 259.967 242.779 247.155C256.742 234.344 275.051 227.318 294 227.5Z" fill="#45413C"/>
<path d="M368.8 273.5C368.8 253.609 360.898 234.532 346.833 220.467C332.768 206.402 313.691 198.5 293.8 198.5C273.909 198.5 254.832 206.402 240.767 220.467C226.702 234.532 218.8 253.609 218.8 273.5V296.5C227.677 294.224 235.907 289.926 242.846 283.941C249.785 277.956 255.246 270.446 258.8 262C291.8 283.7 334.3 279.3 368.8 273.5Z" stroke="#45413C" stroke-width="10" stroke-linecap="round" stroke-linejoin="round"/>
<path d="M248 250.5C251.1 255.174 255.198 259.102 260 262" stroke="#45413C" stroke-width="10" stroke-linecap="round" stroke-linejoin="round"/>
<path d="M179 650C179 655.304 181.107 660.391 184.858 664.142C188.609 667.893 193.696 670 199 670C204.304 670 209.391 667.893 213.142 664.142C216.893 660.391 219 655.304 219 650V532.3H179V650Z" fill="#FFCEBF" stroke="#45413C" stroke-width="10" stroke-linecap="round" stroke-linejoin="round"/>
<path d="M219.3 532.3V497.7" stroke="#45413C" stroke-width="10" stroke-linecap="round" stroke-linejoin="round"/>
<path d="M368.8 532.3V497.7" stroke="#45413C" stroke-width="10" stroke-linecap="round" stroke-linejoin="round"/>
<path d="M265.6 408.1L294 446L321.4 410.9C310.697 407.487 299.534 405.733 288.3 405.7C280.672 405.735 273.067 406.539 265.6 408.1Z" fill="#FFCEBF" stroke="#45413C" stroke-width="10" stroke-linecap="round" stroke-linejoin="round"/>
<path d="M294 446L315.2 449.5C316.692 449.66 318.202 449.482 319.616 448.98C321.03 448.477 322.314 447.662 323.37 446.596C324.427 445.53 325.23 444.24 325.72 442.821C326.209 441.402 326.374 439.891 326.2 438.4L321.4 410.9L294 446Z" fill="#425EAB" stroke="#45413C" stroke-width="10" stroke-linecap="round" stroke-linejoin="round"/>
<path d="M265.6 408.1L261.3 438.8C261.107 440.308 261.26 441.84 261.748 443.28C262.236 444.72 263.046 446.029 264.116 447.109C265.187 448.189 266.489 449.011 267.924 449.512C269.36 450.012 270.89 450.18 272.4 450L294 446.4L265.6 408.1Z" fill="#425EAB" stroke="#45413C" stroke-width="10" stroke-linecap="round" stroke-linejoin="round"/>
<path d="M294 446V618.5" stroke="#45413C" stroke-width="10" stroke-linecap="round" stroke-linejoin="round"/>
<path d="M450.8 486.3H338.5C332.977 486.3 328.5 490.777 328.5 496.3V562.6C328.5 568.123 332.977 572.6 338.5 572.6H450.8C456.323 572.6 460.8 568.123 460.8 562.6V496.3C460.8 490.777 456.323 486.3 450.8 486.3Z" fill="white"/>
<path d="M449.3 515H340C333.649 515 328.5 520.149 328.5 526.5V561C328.5 567.351 333.649 572.5 340 572.5H449.3C455.651 572.5 460.8 567.351 460.8 561V526.5C460.8 520.149 455.651 515 449.3 515Z" fill="#F0F0F0"/>
<path d="M450.8 486.3H338.5C332.977 486.3 328.5 490.777 328.5 496.3V562.6C328.5 568.123 332.977 572.6 338.5 572.6H450.8C456.323 572.6 460.8 568.123 460.8 562.6V496.3C460.8 490.777 456.323 486.3 450.8 486.3Z" stroke="#45413C" stroke-width="10" stroke-linecap="round" stroke-linejoin="round"/>
<path d="M394.7 549.5C401.051 549.5 406.2 544.351 406.2 538C406.2 531.649 401.051 526.5 394.7 526.5C388.349 526.5 383.2 531.649 383.2 538C383.2 544.351 388.349 549.5 394.7 549.5Z" fill="#5E9E53" stroke="#45413C" stroke-width="10" stroke-linecap="round" stroke-linejoin="round"/>
<path d="M394.7 515L400.4 509.3" stroke="#45413C" stroke-width="10" stroke-linecap="round" stroke-linejoin="round"/>
<path d="M376.9 566.8H406.9C409.048 566.8 411.108 567.653 412.627 569.172C414.147 570.691 415 572.752 415 574.9V583.5C415 586.683 413.736 589.735 411.485 591.985C409.235 594.236 406.183 595.5 403 595.5H381C379.424 595.5 377.864 595.19 376.408 594.587C374.952 593.984 373.629 593.1 372.515 591.985C371.4 590.871 370.516 589.548 369.913 588.092C369.31 586.636 369 585.076 369 583.5V574.9C368.999 572.786 369.825 570.755 371.301 569.242C372.777 567.729 374.787 566.852 376.9 566.8Z" fill="#FFCEBF" stroke="#45413C" stroke-width="10" stroke-linecap="round" stroke-linejoin="round"/>
<path d="M363 796.7C364.93 796.547 366.87 796.547 368.8 796.7V618.5H218.8V796.7H264.8C267.123 796.707 269.437 796.976 271.7 797.5L275.7 687.5C276.037 682.997 278.064 678.787 281.375 675.716C284.685 672.644 289.034 670.937 293.55 670.937C298.066 670.937 302.415 672.644 305.725 675.716C309.036 678.787 311.063 682.997 311.4 687.5L316.5 796.7H363Z" fill="#425EAB"/>
<path d="M368.8 618.5H219.3V647.3H368.8V618.5Z" fill="#425EAB"/>
<path d="M363 796.7C364.93 796.547 366.87 796.547 368.8 796.7V618.5H218.8V796.7H264.8C267.123 796.707 269.437 796.976 271.7 797.5L275.7 687.5C276.037 682.997 278.064 678.787 281.375 675.716C284.685 672.644 289.034 670.937 293.55 670.937C298.066 670.937 302.415 672.644 305.725 675.716C309.036 678.787 311.063 682.997 311.4 687.5L316.5 796.7H363Z" stroke="#45413C" stroke-width="10" stroke-linecap="round" stroke-linejoin="round"/>
<path d="M397.5 831.2C397.5 822.05 393.865 813.275 387.395 806.805C380.925 800.335 372.15 796.7 363 796.7H317V820C317.026 823.033 318.25 825.932 320.403 828.067C322.557 830.202 325.467 831.4 328.5 831.4L397.5 831.2Z" fill="#45413C" stroke="#45413C" stroke-width="10" stroke-linecap="round" stroke-linejoin="round"/>
<path d="M300 831.2C299.974 822.058 296.33 813.298 289.866 806.834C283.402 800.37 274.642 796.726 265.5 796.7H219.5V820C219.5 821.506 219.798 822.996 220.377 824.386C220.956 825.776 221.805 827.037 222.874 828.097C223.943 829.156 225.212 829.994 226.607 830.561C228.001 831.128 229.495 831.413 231 831.4L300 831.2Z" fill="#45413C" stroke="#45413C" stroke-width="10" stroke-linecap="round" stroke-linejoin="round"/>
<path opacity="0.15" d="M311.3 860C374.813 860 426.3 852.254 426.3 842.7C426.3 833.145 374.813 825.4 311.3 825.4C247.787 825.4 196.3 833.145 196.3 842.7C196.3 852.254 247.787 860 311.3 860Z" fill="#020202"/>
</svg>
