<svg width="50" height="50" viewBox="0 0 50 50" fill="none" xmlns="http://www.w3.org/2000/svg">
<path d="M1 25V30.7929C1 31.707 1.74122 32.4482 2.65527 32.4482H42.3789V25" fill="#ECF0F1"/>
<path d="M42.3789 25V16.9307V2.65527C42.3789 1.74122 41.6387 1 40.7246 1H2.65527C1.74122 1 1 1.74122 1 2.65527V25" fill="#718EDE"/>
<path d="M32.1377 33.4482H2.65528C1.19092 33.4482 0 32.2568 0 30.7929V2.65526C0 1.19141 1.19092 0 2.65528 0H40.7246C42.188 0 43.3789 1.19141 43.3789 2.65526V16.9306C43.3789 17.4834 42.9311 17.9307 42.3789 17.9307C41.8267 17.9307 41.3789 17.4834 41.3789 16.9306V2.65526C41.3789 2.29393 41.0854 1.99999 40.7246 1.99999H2.65528C2.29396 1.99999 2.00002 2.29393 2.00002 2.65526V30.7929C2.00002 31.1543 2.29396 31.4482 2.65528 31.4482H32.1377C32.6899 31.4482 33.1377 31.8955 33.1377 32.4482C33.1377 33.0009 32.6899 33.4482 32.1377 33.4482Z" fill="#656872"/>
<path d="M25.8271 33.4482V39.0693H17.5518V33.4482" fill="#BDC3C7"/>
<path d="M25.8271 40.0693H17.5518C16.9995 40.0693 16.5518 39.622 16.5518 39.0693V33.4482C16.5518 32.8955 16.9995 32.4482 17.5518 32.4482C18.104 32.4482 18.5518 32.8955 18.5518 33.4482V38.0693H24.8272V33.4482C24.8272 32.8955 25.2749 32.4482 25.8271 32.4482C26.3794 32.4482 26.8272 32.8955 26.8272 33.4482V39.0693C26.8272 39.622 26.3794 40.0693 25.8271 40.0693Z" fill="#656872"/>
<path d="M32.1377 26.8271H1.00001C0.447767 26.8271 0 26.3798 0 25.8271C0 25.2744 0.447767 24.8271 1.00001 24.8271H32.1377C32.6899 24.8271 33.1377 25.2744 33.1377 25.8271C33.1377 26.3798 32.6899 26.8271 32.1377 26.8271Z" fill="#656872"/>
<path d="M29.1377 40.0693H14.2412C13.689 40.0693 13.2412 39.622 13.2412 39.0693C13.2412 38.5166 13.689 38.0693 14.2412 38.0693H29.1377C29.6899 38.0693 30.1377 38.5166 30.1377 39.0693C30.1377 39.622 29.6899 40.0693 29.1377 40.0693Z" fill="#656872"/>
<path d="M49 42.3799V47.3447C49 48.2588 48.2588 49 47.3447 49H34.1035C33.1895 49 32.4482 48.2588 32.4482 47.3447V42.3799" fill="#ECF0F1"/>
<path d="M49 24.1728H32.4482V42.3799H49V24.1728Z" fill="#6F94F8"/>
<path d="M32.4482 24.1728V19.207C32.4482 18.293 33.1895 17.5518 34.1035 17.5518H47.3447C48.2588 17.5518 49 18.293 49 19.207V24.1728H32.4482Z" fill="#ECF0F1"/>
<path d="M47.3447 50H34.1035C32.6391 50 31.4482 48.8086 31.4482 47.3447V19.207C31.4482 17.7432 32.6391 16.5518 34.1035 16.5518H47.3447C48.8091 16.5518 50 17.7432 50 19.207V47.3447C50 48.8086 48.8091 50 47.3447 50ZM34.1035 18.5518C33.7422 18.5518 33.4482 18.8457 33.4482 19.207V47.3447C33.4482 47.7061 33.7422 48 34.1035 48H47.3447C47.706 48 48 47.7061 48 47.3447V19.207C48 18.8457 47.706 18.5518 47.3447 18.5518H34.1035Z" fill="#656872"/>
<path d="M49 25.1728H32.4483C31.896 25.1728 31.4482 24.7256 31.4482 24.1728C31.4482 23.6201 31.896 23.1729 32.4483 23.1729H49C49.5522 23.1729 50 23.6201 50 24.1728C50 24.7256 49.5522 25.1728 49 25.1728Z" fill="#656872"/>
<path d="M49 43.3799H32.4483C31.896 43.3799 31.4482 42.9326 31.4482 42.3799C31.4482 41.8271 31.896 41.3799 32.4483 41.3799H49C49.5522 41.3799 50 41.8271 50 42.3799C50 42.9326 49.5522 43.3799 49 43.3799Z" fill="#656872"/>
<path d="M41.5518 21.8623H39.8965C39.3443 21.8623 38.8965 21.415 38.8965 20.8623C38.8965 20.3096 39.3443 19.8623 39.8965 19.8623H41.5518C42.104 19.8623 42.5518 20.3096 42.5518 20.8623C42.5518 21.415 42.104 21.8623 41.5518 21.8623Z" fill="#656872"/>
</svg>
