<svg width="50" height="50" viewBox="0 0 50 50" fill="none" xmlns="http://www.w3.org/2000/svg">
<path d="M42.8125 8.59375H28.4375L25.1563 15.1562H6.71875V41.4062H46.0938V8.59375H42.8125ZM42.8125 37.8125H10.3125V18.4375H42.8125V37.8125ZM42.8125 15.1562H30L31.5625 11.875H42.6562V15.1562H42.8125Z" fill="#8FA8EB"/>
<path d="M40.1563 21.4062H0.78125L6.71875 41.4063H46.0938L40.1563 21.4062Z" fill="#8FA8EB"/>
<path d="M43.3954 48.5564C42.6297 48.5572 41.8804 48.3346 41.2394 47.9157C40.5985 47.4968 40.0937 46.9 39.7871 46.1983C39.4805 45.4967 39.3854 44.7208 39.5134 43.9659C39.6415 43.211 39.9871 42.5098 40.5079 41.9485L37.8985 37.9798C36.9616 38.4424 35.9285 38.6765 34.8837 38.6629C33.8389 38.6493 32.8122 38.3885 31.8876 37.9017L29.2907 40.6673C29.6675 41.366 29.786 42.1751 29.6255 42.9525C29.465 43.7299 29.0358 44.4259 28.4132 44.9183C27.7906 45.4106 27.0144 45.6679 26.2209 45.645C25.4275 45.622 24.6675 45.3202 24.0744 44.7926C23.4813 44.265 23.0931 43.5453 22.9779 42.76C22.8626 41.9746 23.0278 41.1737 23.4443 40.498C23.8609 39.8223 24.5021 39.3149 25.2556 39.065C26.009 38.8151 26.8263 38.8386 27.5642 39.1314L30.0532 36.4751C28.9445 35.2548 28.3316 33.6645 28.3345 32.0157C28.3343 31.8007 28.3453 31.5859 28.3673 31.372L22.4298 29.5501C21.8471 30.2724 21.0278 30.7653 20.1168 30.9418C19.2058 31.1183 18.2617 30.9669 17.4515 30.5145C16.6413 30.0621 16.0171 29.3378 15.6894 28.4696C15.3617 27.6014 15.3516 26.6453 15.6608 25.7704C15.97 24.8954 16.5786 24.158 17.379 23.6885C18.1794 23.219 19.1201 23.0476 20.0347 23.2047C20.9492 23.3618 21.7788 23.8373 22.3767 24.547C22.9745 25.2567 23.3022 26.155 23.3017 27.0829C23.3017 27.1876 23.3017 27.2923 23.2876 27.3954L28.9845 29.1439C29.4384 28.1909 30.1138 27.3604 30.9543 26.7219C31.7948 26.0834 32.7759 25.6553 33.8157 25.4736V21.7532C33.1106 21.4832 32.5223 20.9748 32.1529 20.3163C31.7836 19.6577 31.6565 18.8906 31.7938 18.1481C31.9311 17.4056 32.3241 16.7347 32.9045 16.2518C33.4849 15.7688 34.2161 15.5044 34.9712 15.5044C35.7263 15.5044 36.4575 15.7688 37.0379 16.2518C37.6183 16.7347 38.0113 17.4056 38.1486 18.1481C38.2859 18.8906 38.1588 19.6577 37.7895 20.3163C37.4201 20.9748 36.8318 21.4832 36.1267 21.7532V25.4814C37.6338 25.7475 39.0024 26.5271 40.0001 27.6876L43.0126 25.872C42.9972 25.7549 42.9893 25.637 42.9892 25.5189C42.9895 24.9606 43.1553 24.4149 43.4656 23.9508C43.776 23.4868 44.217 23.1251 44.7328 22.9116C45.2487 22.6981 45.8163 22.6423 46.3638 22.7513C46.9114 22.8603 47.4143 23.1292 47.8091 23.524C48.2038 23.9187 48.4727 24.4217 48.5817 24.9692C48.6907 25.5168 48.6349 26.0843 48.4214 26.6002C48.2079 27.116 47.8463 27.557 47.3822 27.8674C46.9181 28.1777 46.3724 28.3436 45.8142 28.3439C45.2429 28.3452 44.685 28.1713 44.2157 27.8454L41.1876 29.6751C41.472 30.4238 41.6176 31.218 41.6173 32.0189V32.0751L43.2688 32.3611C43.6617 31.8489 44.2184 31.4868 44.8459 31.3354C45.4734 31.184 46.1339 31.2523 46.7171 31.5289C47.3004 31.8055 47.7712 32.2738 48.0509 32.8555C48.3307 33.4373 48.4026 34.0974 48.2545 34.7257C48.1065 35.354 47.7475 35.9126 47.2374 36.3083C46.7273 36.7039 46.097 36.9127 45.4516 36.8999C44.8062 36.887 44.1847 36.6532 43.6908 36.2376C43.1969 35.8219 42.8605 35.2495 42.7376 34.6157L41.1954 34.347C40.8771 35.1884 40.3936 35.9577 39.7735 36.6095L42.511 40.7814C43.0515 40.6562 43.6123 40.6466 44.1567 40.7534C44.7011 40.8601 45.2168 41.0807 45.6699 41.4008C46.1231 41.7208 46.5035 42.133 46.7861 42.6104C47.0688 43.0877 47.2473 43.6194 47.3101 44.1706C47.3728 44.7219 47.3183 45.2801 47.1502 45.8088C46.982 46.3374 46.704 46.8246 46.3343 47.2383C45.9647 47.6519 45.5118 47.9828 45.0053 48.2092C44.4988 48.4355 43.9502 48.5522 43.3954 48.5517V48.5564Z" fill="white"/>
<path d="M45.503 31.4516C45.0797 31.4518 44.6626 31.5544 44.2875 31.7505C43.9123 31.9467 43.5901 32.2306 43.3483 32.5781L41.4108 32.2422C41.4108 32.1688 41.4108 32.0969 41.4108 32.0235C41.4112 31.1896 41.2488 30.3638 40.9327 29.5922L44.214 27.6125C44.7021 27.9833 45.3044 28.1721 45.9169 28.1462C46.5294 28.1202 47.1136 27.8813 47.5687 27.4705C48.0238 27.0597 48.3211 26.503 48.4094 25.8963C48.4978 25.2897 48.3715 24.6713 48.0524 24.1478C47.7334 23.6243 47.2415 23.2287 46.6619 23.0292C46.0822 22.8297 45.4511 22.8389 44.8774 23.0552C44.3038 23.2714 43.8237 23.6812 43.52 24.2137C43.2163 24.7462 43.108 25.3681 43.214 25.9719L39.9483 27.9422C38.9407 26.7083 37.5119 25.8912 35.9374 25.6485V21.6172C36.6211 21.3891 37.2014 20.9251 37.5744 20.3083C37.9474 19.6915 38.0887 18.9621 37.9731 18.2506C37.8576 17.5391 37.4926 16.892 36.9436 16.4249C36.3946 15.9579 35.6973 15.7014 34.9765 15.7014C34.2557 15.7014 33.5584 15.9579 33.0093 16.4249C32.4603 16.892 32.0954 17.5391 31.9798 18.2506C31.8642 18.9621 32.0056 19.6915 32.3786 20.3083C32.7515 20.9251 33.3318 21.3891 34.0155 21.6172V25.6485C32.9483 25.8114 31.9388 26.2392 31.0793 26.8926C30.2198 27.546 29.5377 28.4043 29.0952 29.3891L23.0827 27.5422C23.1934 26.6407 22.9724 25.7297 22.461 24.9791C21.9495 24.2285 21.1826 23.6896 20.3031 23.4627C19.4236 23.2358 18.4917 23.3366 17.681 23.7461C16.8703 24.1557 16.2362 24.8461 15.897 25.6886C15.5578 26.5312 15.5366 27.4683 15.8373 28.3254C16.138 29.1824 16.7402 29.9008 17.5315 30.3466C18.3228 30.7924 19.2493 30.9353 20.1381 30.7485C21.027 30.5616 21.8175 30.0579 22.3624 29.3313L28.5796 31.2406C28.4613 32.1895 28.557 33.1528 28.8595 34.06C29.1621 34.9671 29.6638 35.7949 30.328 36.4828L27.6202 39.3656C26.9249 39.0562 26.1417 39.0058 25.4125 39.2236C24.6832 39.4413 24.0559 39.9128 23.644 40.5528C23.2321 41.1928 23.0628 41.9591 23.1667 42.7131C23.2706 43.467 23.6409 44.1589 24.2106 44.6636C24.7802 45.1684 25.5117 45.4526 26.2727 45.4649C27.0337 45.4773 27.774 45.2169 28.3597 44.7309C28.9454 44.2449 29.3379 43.5654 29.4663 42.8152C29.5946 42.065 29.4502 41.2937 29.0593 40.6406L31.8499 37.6563C32.7837 38.1748 33.832 38.4525 34.9 38.4642C35.968 38.4759 37.0221 38.2213 37.9671 37.7235L40.7593 41.9688C40.1174 42.6093 39.7304 43.4615 39.6705 44.3663C39.6106 45.2712 39.8818 46.1669 40.4336 46.8865C40.9855 47.6061 41.7802 48.1005 42.6696 48.2773C43.559 48.4542 44.4823 48.3016 45.2675 47.8479C46.0527 47.3942 46.646 46.6704 46.9368 45.8114C47.2277 44.9525 47.1962 44.0172 46.8483 43.1797C46.5004 42.3423 45.8597 41.66 45.0458 41.2601C44.232 40.8602 43.3004 40.77 42.4249 41.0063L39.5171 36.5844C40.2121 35.893 40.7405 35.0525 41.0624 34.1266L42.903 34.4391C42.974 34.938 43.187 35.4061 43.5166 35.7874C43.8462 36.1687 44.2785 36.4472 44.7619 36.5897C45.2453 36.7322 45.7595 36.7326 46.2432 36.5911C46.7269 36.4495 47.1597 36.1718 47.49 35.7911C47.8203 35.4104 48.0342 34.9428 48.1061 34.444C48.1781 33.9451 48.1051 33.4361 47.8958 32.9776C47.6866 32.5191 47.3499 32.1304 46.9259 31.8579C46.502 31.5854 46.0086 31.4406 45.5046 31.4406L45.503 31.4516Z" fill="#2F4379"/>
</svg>
