<svg width="50" height="50" viewBox="0 0 50 50" fill="none" xmlns="http://www.w3.org/2000/svg">
<path d="M50 7.03123C50.0002 7.27948 49.9512 7.52532 49.8561 7.75459C49.7609 7.98386 49.6213 8.19205 49.4453 8.36717L43.75 14.0625L8.36716 49.4453C8.19216 49.6215 7.98403 49.7614 7.75475 49.8568C7.52547 49.9522 7.27958 50.0014 7.03123 50.0014C6.78288 50.0014 6.53698 49.9522 6.3077 49.8568C6.07842 49.7614 5.87029 49.6215 5.69529 49.4453L0.554663 44.3047C0.378449 44.1297 0.238598 43.9215 0.143163 43.6923C0.0477284 43.463 -0.00140381 43.2171 -0.00140381 42.9687C-0.00140381 42.7204 0.0477284 42.4745 0.143163 42.2452C0.238598 42.0159 0.378449 41.8078 0.554663 41.6328L35.9375 6.24998L41.6328 0.554663C41.8078 0.378449 42.0159 0.238598 42.2452 0.143163C42.4745 0.0477284 42.7204 -0.00140381 42.9687 -0.00140381C43.2171 -0.00140381 43.463 0.0477284 43.6923 0.143163C43.9215 0.238598 44.1297 0.378449 44.3047 0.554663L49.4453 5.69529C49.6213 5.87041 49.7609 6.07859 49.8561 6.30786C49.9512 6.53714 50.0002 6.78298 50 7.03123Z" fill="#2F4379"/>
<path d="M50 7.03132C50.0002 7.27957 49.9513 7.52541 49.8561 7.75468C49.7609 7.98396 49.6213 8.19214 49.4453 8.36726L42.9688 14.8438L35.1562 7.03132L41.6328 0.554755C41.8078 0.378541 42.0159 0.238689 42.2452 0.143255C42.4745 0.0478199 42.7204 -0.00131226 42.9688 -0.00131226C43.2171 -0.00131226 43.463 0.0478199 43.6923 0.143255C43.9216 0.238689 44.1297 0.378541 44.3047 0.554755L49.4453 5.69538C49.6213 5.8705 49.7609 6.07868 49.8561 6.30796C49.9513 6.53723 50.0002 6.78307 50 7.03132Z" fill="#7B9BF3"/>
<path d="M35.9427 6.24844L32.816 9.37518L40.6273 17.1865L43.7541 14.0598L35.9427 6.24844Z" fill="#4B6DC9"/>
<path d="M40.625 31.25L37.5 40.625L40.625 50L43.75 40.625L40.625 31.25Z" fill="#425EAB"/>
<path d="M50 40.625L40.625 37.5L31.25 40.625L40.625 43.75L50 40.625Z" fill="#425EAB"/>
<path d="M18.75 0L17.1875 6.25L18.75 12.5L20.3125 6.25L18.75 0Z" fill="#425EAB"/>
<path d="M25 6.25L18.75 4.6875L12.5 6.25L18.75 7.8125L25 6.25Z" fill="#425EAB"/>
<path d="M34.375 32.8125C35.2379 32.8125 35.9375 32.1129 35.9375 31.25C35.9375 30.3871 35.2379 29.6875 34.375 29.6875C33.5121 29.6875 32.8125 30.3871 32.8125 31.25C32.8125 32.1129 33.5121 32.8125 34.375 32.8125Z" fill="#425EAB"/>
<path d="M46.875 28.125C48.6009 28.125 50 26.7259 50 25C50 23.2741 48.6009 21.875 46.875 21.875C45.1491 21.875 43.75 23.2741 43.75 25C43.75 26.7259 45.1491 28.125 46.875 28.125Z" fill="#425EAB"/>
<path d="M14.8437 18.75C16.1382 18.75 17.1875 17.7006 17.1875 16.4062C17.1875 15.1118 16.1382 14.0625 14.8437 14.0625C13.5493 14.0625 12.5 15.1118 12.5 16.4062C12.5 17.7006 13.5493 18.75 14.8437 18.75Z" fill="#425EAB"/>
<path d="M7.8125 9.375C8.67545 9.375 9.375 8.67545 9.375 7.8125C9.375 6.94956 8.67545 6.25 7.8125 6.25C6.94956 6.25 6.25 6.94956 6.25 7.8125C6.25 8.67545 6.94956 9.375 7.8125 9.375Z" fill="#425EAB"/>
</svg>
